<?xml version="1.0" encoding="iso-8859-1"?>
<!-- Generator: Adobe Illustrator 19.0.0, SVG Export Plug-In . SVG Version: 6.00 Build 0)  -->
<svg version="1.1" id="Capa_1" xmlns="http://www.w3.org/2000/svg" xmlns:xlink="http://www.w3.org/1999/xlink" x="0px" y="0px" width="22" height="22"
	 viewBox="0 0 457.143 457.143" style="enable-background:new 0 0 457.143 457.143;" xml:space="preserve">
<g>
	<rect x="228.833" y="214.465" style="fill:#141414;" width="50" height="50"/>
	<path style="fill:#141414;" d="M412.212,214.465h-183.38v-102.4c0,0,63.216,0,87.771,0h124.865v102.4
		C441.469,214.465,412.212,214.465,412.212,214.465z"/>
	<path style="fill:#141414;" d="M44.931,214.465H15.673v-102.4h125.388c24.555,0,87.771,0,87.771,0v102.4
		C228.833,214.465,44.931,214.465,44.931,214.465z"/>
	<rect x="44.931" y="214.465" style="fill:#141414;" width="50" height="50"/>
</g>
<path style="fill:#FFF;" d="M441.469,96.392h-73.143c4.702-8.359,7.314-17.763,7.314-28.212
	c0-32.914-26.645-59.559-59.559-59.559c-44.931,0-72.098,33.959-87.249,62.171C213.682,42.58,186.514,8.62,141.584,8.62
	c-32.914,0-59.559,26.645-59.559,59.559c0,10.449,2.612,19.853,7.314,28.212H15.673C6.792,96.392,0,103.184,0,112.065v102.4
	c0,8.882,6.792,15.673,15.673,15.673h13.584v202.71c0,8.882,6.792,15.673,15.673,15.673h367.282c8.882,0,15.673-6.792,15.673-15.673
	v-202.71h13.584c8.882,0,15.673-6.792,15.673-15.673v-102.4C457.143,103.184,450.351,96.392,441.469,96.392z M425.796,198.792
	h-181.29v-71.053h72.098h109.192V198.792z M316.082,39.967c15.151,0,28.212,13.061,28.212,28.212
	c0,15.673-12.016,28.212-27.69,28.212h-65.306C261.224,73.927,281.6,39.967,316.082,39.967z M113.371,68.18
	c0-15.151,13.061-28.212,28.212-28.212c34.482,0,54.857,33.959,64.784,56.424h-65.306C125.388,96.392,113.371,83.853,113.371,68.18z
	 M31.347,127.739h109.714h72.098v71.053H31.347V127.739z M60.604,230.139h152.555v187.037H60.604V230.139z M396.539,417.176H244.506
	V230.139h152.033V417.176z"/>
<g>
</g>
<g>
</g>
<g>
</g>
<g>
</g>
<g>
</g>
<g>
</g>
<g>
</g>
<g>
</g>
<g>
</g>
<g>
</g>
<g>
</g>
<g>
</g>
<g>
</g>
<g>
</g>
<g>
</g>
</svg>
